Coordinates
version=1
nRows=26
nColumns=22
inDegrees=yes

Units are S.I. units (second, meters, Newtons, ...)
If the header above contains a line with 'inDegrees', this indicates whether rotational values are in degrees (yes) or radians (no).

endheader
time	pelvis_tilt	pelvis_list	pelvis_rotation	pelvis_tx	pelvis_ty	pelvis_tz	hip_flexion_r	hip_adduction_r	hip_rotation_r	knee_angle_r	ankle_angle_r	subtalar_angle_r	hip_flexion_l	hip_adduction_l	hip_rotation_l	knee_angle_l	ankle_angle_l	subtalar_angle_l	lumbar_extension	lumbar_bending	lumbar_rotation
      4.20000000	      1.12971759	     -2.19644551	     -5.95198062	     -1.27052307	      1.07574934	     -0.28084174	     -1.42954023	      5.59427839	     -2.01992851	    -13.85850332	     15.46067176	     -5.24781992	     20.43784242	     -4.60036578	      1.81565106	    -45.31698981	     11.97301863	      1.32484170	     -9.16420811	     -3.06493422	     -0.02477401
      4.21000000	      1.12255024	     -2.29167153	     -6.00668936	     -1.27258447	      1.07591088	     -0.28103795	     -1.33699577	      5.69106003	     -1.95750891	    -13.81106231	     15.34855940	     -5.18414018	     19.86616591	     -4.66320179	      1.98629515	    -45.36632477	     12.02835663	      1.23754256	     -8.99734206	     -2.89593905	     -0.25579503
      4.22000000	      1.13593138	     -2.39392917	     -6.06632705	     -1.27453296	      1.07608797	     -0.28124016	     -1.26798037	      5.79058125	     -1.90495366	    -13.77209571	     15.23459533	     -5.12151774	     19.24938931	     -4.75099662	      2.08882476	    -45.32179354	     12.07483274	      1.15375309	     -8.85606371	     -2.72530724	     -0.46929333
      4.23000000	      1.10247207	     -2.47734780	     -6.12551762	     -1.27633331	      1.07618630	     -0.28147079	     -1.16655892	      5.87419510	     -1.83879614	    -13.70984125	     15.09183501	     -5.10346879	     18.66244758	     -4.83600204	      2.13336055	    -45.18414182	     12.14978503	      1.12028555	     -8.64955349	     -2.57237347	     -0.67046371
      4.24000000	      1.07262961	     -2.57233090	     -6.18215350	     -1.27803941	      1.07626865	     -0.28173696	     -1.07081109	      5.96757959	     -1.78281950	    -13.65372710	     14.93002019	     -5.10864677	     18.06202884	     -4.94760323	      2.11812725	    -44.97079247	     12.20703811	      1.10255588	     -8.45363563	     -2.40588484	     -0.86196596
      4.25000000	      1.03746168	     -2.66870232	     -6.23479964	     -1.27963416	      1.07632675	     -0.28204615	     -0.97785840	      6.06011254	     -1.73109932	    -13.59187847	     14.74785055	     -5.14062854	     17.45550654	     -5.07333717	      2.04886780	    -44.67555628	     12.24265924	      1.10011018	     -8.25263952	     -2.23513549	     -1.03881786
      4.26000000	      1.03076071	     -2.77555892	     -6.28874061	     -1.28112467	      1.07640289	     -0.28238377	     -0.93126740	      6.16041330	     -1.66245498	    -13.51238223	     14.57746578	     -5.23162659	     16.80666345	     -5.22429745	      1.90958833	    -44.30092648	     12.24767017	      1.11258567	     -8.09005025	     -2.05565205	     -1.20850996
      4.27000000	      0.95942529	     -2.86366404	     -6.32637420	     -1.28254536	      1.07637391	     -0.28280323	     -0.80550791	      6.24248571	     -1.64319752	    -13.45054086	     14.34308367	     -5.29825759	     16.22431887	     -5.35764201	      1.75691965	    -43.84642489	     12.21517895	      1.13806502	     -7.85475635	     -1.89003857	     -1.36088064
      4.28000000	      0.94769112	     -2.97921198	     -6.37610410	     -1.28385146	      1.07640535	     -0.28323439	     -0.77839170	      6.34934706	     -1.56877617	    -13.34322808	     14.14154641	     -5.45222378	     15.56297666	     -5.53756872	      1.51212424	    -43.31013319	     12.16359440	      1.18657058	     -7.69471914	     -1.69749471	     -1.50222734
      4.29000000	      0.91427516	     -3.08073533	     -6.41242768	     -1.28508737	      1.07639456	     -0.28375297	     -0.72388779	      6.43796364	     -1.53078362	    -13.24608530	     13.91641204	     -5.58939931	     14.91901675	     -5.70035551	      1.24683062	    -42.68574888	     12.07047266	      1.24912862	     -7.51315571	     -1.51551944	     -1.63606421
      4.30000000	      0.89267320	     -3.18465194	     -6.44439070	     -1.28624732	      1.07638298	     -0.28432747	     -0.68870844	      6.52498183	     -1.49859156	    -13.14502709	     13.69557419	     -5.72917242	     14.25283932	     -5.86873907	      0.93842348	    -41.97096776	     11.96796332	      1.32891882	     -7.35146345	     -1.33089207	     -1.76111319
      4.31000000	      0.87491311	     -3.29046789	     -6.46816268	     -1.28732311	      1.07636449	     -0.28496617	     -0.66912199	      6.60974249	     -1.47517274	    -13.03194014	     13.48160402	     -5.85581871	     13.57583210	     -6.03966117	      0.59590964	    -41.16648797	     11.86201711	      1.42108941	     -7.19835320	     -1.14387058	     -1.87793521
      4.32000000	      0.87636712	     -3.39441899	     -6.48479039	     -1.28831778	      1.07635887	     -0.28567110	     -0.67681865	      6.68561787	     -1.46178141	    -12.91462766	     13.28631671	     -5.97806890	     12.87130176	     -6.20715394	      0.21605952	    -40.27105772	     11.79227835	      1.52339471	     -7.07137422	     -0.95889380	     -1.99540023
      4.33000000	      0.88045715	     -3.49743964	     -6.48709601	     -1.28923432	      1.07634786	     -0.28644523	     -0.69357095	      6.75588858	     -1.46377873	    -12.79372234	     13.10931538	     -6.07979137	     12.16368948	     -6.37219301	     -0.18952488	    -39.29139742	     11.78242986	      1.62181650	     -6.94986192	     -0.77497426	     -2.11872019
      4.34000000	      0.88343820	     -3.59910871	     -6.47339293	     -1.29006133	      1.07632853	     -0.28729727	     -0.71963403	      6.81967316	     -1.48298591	    -12.66168011	     12.94693030	     -6.15868852	     11.46064347	     -6.53291170	     -0.61582218	    -38.23483794	     11.86741878	      1.70426817	     -6.82494217	     -0.59149331	     -2.23690625
      4.35000000	      0.89697967	     -3.69385213	     -6.43819946	     -1.29083024	      1.07632044	     -0.28823635	     -0.75890110	      6.87045936	     -1.51839647	    -12.52959369	     12.80846797	     -6.22189652	     10.75847233	     -6.68133561	     -1.05933117	    -37.11426668	     12.05651512	      1.76481146	     -6.71750355	     -0.41458448	     -2.38230687
      4.36000000	      0.89767379	     -3.78564630	     -6.37870266	     -1.29154045	      1.07630108	     -0.28926487	     -0.79108601	      6.91559780	     -1.57733407	    -12.38777159	     12.68464250	     -6.26332183	     10.08610131	     -6.82046194	     -1.49939873	    -35.94360234	     12.36084021	      1.79100182	     -6.59639276	     -0.24041266	     -2.52760374
      4.37000000	      0.90717268	     -3.86584349	     -6.29344993	     -1.29220918	      1.07630879	     -0.29039105	     -0.83281593	      6.94379681	     -1.65461484	    -12.24488129	     12.56467404	     -6.29029672	      9.42639066	     -6.93822245	     -1.93798341	    -34.74173405	     12.73539769	      1.79080102	     -6.48904251	     -0.07878320	     -2.70129502
      4.38000000	      0.90871701	     -3.93460902	     -6.18017177	     -1.29283229	      1.07631846	     -0.29162271	     -0.86676161	      6.95732902	     -1.75648439	    -12.10041386	     12.45445034	     -6.30174212	      8.80151955	     -7.03079404	     -2.34892649	    -33.53437516	     13.16034611	      1.76372321	     -6.37293489	      0.07268794	     -2.88684000
      4.39000000	      0.92585254	     -3.98522695	     -6.04215515	     -1.29342293	      1.07637784	     -0.29295579	     -0.91862745	      6.94704027	     -1.87320409	    -11.95126091	     12.33916004	     -6.29767864	      8.18667978	     -7.08920062	     -2.73599478	    -32.33686864	     13.58290794	      1.71053178	     -6.27679201	      0.20367449	     -3.09632611
      4.40000000	      0.92664845	     -4.02121777	     -5.87840831	     -1.29399345	      1.07643536	     -0.29440173	     -0.95260157	      6.91971910	     -2.01606565	    -11.80042211	     12.24986475	     -6.28215622	      7.62028611	     -7.11283388	     -3.05955989	    -31.17198841	     13.99732561	      1.63212035	     -6.16136639	      0.32300508	     -3.30380243
      4.41000000	      0.94171730	     -4.03347635	     -5.69630956	     -1.29455034	      1.07654817	     -0.29593379	     -1.00226811	      6.86397343	     -2.17179210	    -11.64540023	     12.15331163	     -6.25500945	      7.06375580	     -7.09336723	     -3.33947960	    -30.03938904	     14.36652704	      1.52699852	     -6.06578425	      0.41432465	     -3.52599929
      4.42000000	      0.95613765	     -4.02503056	     -5.49739457	     -1.29509064	      1.07669085	     -0.29755497	     -1.05008886	      6.78403449	     -2.34285481	    -11.49065174	     12.06919539	     -6.22544607	      6.53160599	     -7.03402238	     -3.56205964	    -28.94456146	     14.68615591	      1.40757083	     -5.96863703	      0.48381291	     -3.74397886
      4.43000000	      0.97835128	     -3.99352061	     -5.28845410	     -1.29561912	      1.07687751	     -0.29924607	     -1.10397897	      6.67668232	     -2.52456261	    -11.33803263	     11.98345972	     -6.19671647	      6.00869111	     -6.93593439	     -3.74451846	    -27.87865231	     14.94609021	      1.27710925	     -5.88054018	      0.52711140	     -3.95844384
      4.44000000	      1.00281079	     -3.94069957	     -5.07498519	     -1.29615009	      1.07709441	     -0.30099506	     -1.15443516	      6.54442272	     -2.71669623	    -11.19317783	     11.90262163	     -6.17410104	      5.49755855	     -6.80258755	     -3.89172910	    -26.83640446	     15.14783189	      1.14287287	     -5.79831061	      0.54563471	     -4.16138878
      4.45000000	      1.03211065	     -3.86766550	     -4.85894134	     -1.29667668	      1.07734119	     -0.30279503	     -1.20361325	      6.38790811	     -2.91670643	    -11.05916365	     11.82306172	     -6.15762677	      4.99169540	     -6.63751950	     -4.01555641	    -25.81098564	     15.29646825	      1.00229917	     -5.72146245	      0.54165540	     -4.34880539
